<svg width="24" height="24"
    xmlns="http://www.w3.org/2000/svg" fill="#15377c">
    <g>
        <title>Layer 1</title>
        <rect id="svg_3" height="24" width="24" y="0" x="0" stroke="null" fill="#15377c"/>
        <path d="m18.075,2.4l-12.15,0c-0.67,0 -1.214,0.544 -1.214,1.215l0,14.58c0,0.67 0.544,1.214 1.215,1.214l12.149,0c0.67,0 1.215,-0.543 1.215,-1.215l0,-14.579c0,-0.671 -0.544,-1.215 -1.215,-1.215zm-8.775,1.086l5.4,0l0,0.914l-5.4,0l0,-0.914zm-2.444,13.746a0.93,0.93 0 1 1 0,-1.86a0.93,0.93 0 0 1 0,1.86zm10.288,0a0.93,0.93 0 1 1 0,-1.86a0.93,0.93 0 0 1 0,1.86zm0.93,-4.854c0,0.22 -0.146,0.412 -0.359,0.469a23.04,23.04 0 0 1 -5.715,0.755a23.04,23.04 0 0 1 -5.715,-0.755a0.485,0.485 0 0 1 -0.36,-0.47l0,-6.582c0,-0.269 0.218,-0.486 0.486,-0.486l11.177,0c0.268,0 0.486,0.217 0.486,0.486l0,6.584l0,-0.001z" fill="#fff" id="svg_1"/>
        <path d="m7.786,19.388l-1.86,0l0,2.212l1.86,0l0,-2.212zm10.289,0l-1.86,0l0,2.212l1.86,0l0,-2.212z" fill="#fff" id="svg_2"/>
    </g>

</svg>
