<?xml version="1.0" encoding="UTF-8"?>
<svg xmlns="http://www.w3.org/2000/svg" xmlns:xlink="http://www.w3.org/1999/xlink" viewBox="0 0 90 90" width="90px" height="90px">
<g id="surface42218256">
<path style=" stroke:none;fill-rule:nonzero;fill:rgb(98.431373%,98.431373%,98.431373%);fill-opacity:1;" d="M 21 12 C 20.230469 12 19.464844 12.292969 18.878906 12.878906 L 12.878906 18.878906 C 11.707031 20.050781 11.707031 21.949219 12.878906 23.121094 L 34.757812 45 L 12.878906 66.878906 C 11.707031 68.050781 11.707031 69.949219 12.878906 71.121094 L 18.878906 77.121094 C 20.050781 78.292969 21.949219 78.292969 23.121094 77.121094 L 45 55.242188 L 66.878906 77.121094 C 68.050781 78.292969 69.949219 78.292969 71.121094 77.121094 L 77.121094 71.121094 C 78.292969 69.949219 78.292969 68.050781 77.121094 66.878906 L 55.242188 45 L 77.121094 23.121094 C 78.292969 21.949219 78.292969 20.050781 77.121094 18.878906 L 71.121094 12.878906 C 69.949219 11.707031 68.050781 11.707031 66.878906 12.878906 L 45 34.757812 L 23.121094 12.878906 C 22.535156 12.292969 21.769531 12 21 12 Z M 21 12 "/>
</g>
</svg>
