<?xml version="1.0" encoding="UTF-8"?>
<svg xmlns="http://www.w3.org/2000/svg" xmlns:xlink="http://www.w3.org/1999/xlink" viewBox="0 0 90 90" width="90px" height="90px">
<g id="surface42188910">
<path style=" stroke:none;fill-rule:nonzero;fill:rgb(98.431373%,98.431373%,98.431373%);fill-opacity:1;" d="M 45 9 C 25.117188 9 9 25.117188 9 45 C 9 64.882812 25.117188 81 45 81 C 64.882812 81 81 64.882812 81 45 C 81 25.117188 64.882812 9 45 9 Z M 48 63 L 42 63 L 42 42 L 48 42 Z M 45 34.5 C 42.515625 34.5 40.5 32.484375 40.5 30 C 40.5 27.515625 42.515625 25.5 45 25.5 C 47.484375 25.5 49.5 27.515625 49.5 30 C 49.5 32.484375 47.484375 34.5 45 34.5 Z M 45 34.5 "/>
</g>
</svg>
