<?xml version="1.0" encoding="iso-8859-1"?>
<!-- Generator: Adobe Illustrator 16.0.0, SVG Export Plug-In . SVG Version: 6.00 Build 0)  -->
<!DOCTYPE svg PUBLIC "-//W3C//DTD SVG 1.1//EN" "http://www.w3.org/Graphics/SVG/1.1/DTD/svg11.dtd">
<svg version="1.1" id="Layer_1" xmlns="http://www.w3.org/2000/svg" xmlns:xlink="http://www.w3.org/1999/xlink" x="0px" y="0px"
	 width="425.197px" height="425.196px" viewBox="0 0 425.197 425.196" style="enable-background:new 0 0 425.197 425.196;"
	 xml:space="preserve">
<g id="LWPOLYLINE_1_">

		<rect x="14.174" y="14.174" style="fill:#005EB8;stroke:#005EB8;stroke-width:0.5;stroke-miterlimit:10;" width="396.849" height="396.849"/>
</g>
<g id="LWPOLYLINE_9_">
	<path style="fill:#FFFFFF;" d="M40.629,411.022h343.938c14.611,0,26.455-11.843,26.455-26.455V40.632
		c0-14.613-11.844-26.458-26.455-26.458H40.629c-14.613,0-26.455,11.845-26.455,26.458v343.936
		C14.174,399.18,26.017,411.022,40.629,411.022z"/>
</g>
<g id="LWPOLYLINE_10_">
	<path style="fill:#005EB8;" d="M40.629,397.795h343.938c7.301,0,13.227-5.921,13.227-13.228V40.632
		c0-7.307-5.926-13.23-13.227-13.23H40.629c-7.306,0-13.228,5.924-13.228,13.23v343.936
		C27.402,391.874,33.323,397.795,40.629,397.795z"/>
</g>
<g id="LWPOLYLINE_5_">
	<path style="fill:#FFFFFF;" d="M106.77,371.34V53.859h145.513c51.139,0,92.602,41.457,92.602,92.598s-41.463,92.598-92.602,92.598
		h-85.984V371.34H106.77z"/>
</g>
<g id="LWPOLYLINE_6_">
	<path style="fill:#005EB8;" d="M166.298,113.388h85.984c18.268,0,33.072,14.806,33.072,33.069s-14.805,33.068-33.072,33.068
		h-85.984V113.388z"/>
</g>
</svg>
