<svg width="24" height="24"
    xmlns="http://www.w3.org/2000/svg" fill="none">

    <g>
        <title>Layer 1</title>
        <rect id="svg_2" height="24" width="24" y="0" x="0" stroke="null" fill="#ce071e"/>
        <path id="svg_1" fill="#fff" d="m17.658,18.375l0,-10.279c0,-0.875 -0.71,-3.181 -1.584,-3.181l-2.74,0l0.798,-1.662l1.343,0l0,-0.852l-6.948,0l0,0.852l1.357,0l0.798,1.662l-2.755,0c-0.875,0 -1.585,2.306 -1.585,3.181l0,10.279c0,0.874 0.71,1.583 1.584,1.584l-1.184,1.641l1.732,0l1.184,-1.642l4.685,0l1.183,1.642l1.733,0l-1.184,-1.642c0.875,-0.001 1.583,-0.71 1.583,-1.584l0,0.001zm-6.84,-15.122l2.38,0l-0.798,1.662l-0.783,0l-0.798,-1.662l-0.001,0zm-1.332,2.673l5.03,0l0,0.852l-5.03,0l0,-0.852zm-2.012,11.299a0.866,0.866 0 1 1 1.732,0a0.866,0.866 0 0 1 -1.732,0zm8.186,0.866a0.866,0.866 0 1 1 0,-1.732a0.866,0.866 0 0 1 0,1.732zm0.866,-3.404c0,0.205 -0.109,0.384 -0.267,0.437c-0.631,0.212 -2.305,0.384 -4.259,0.384c-1.954,0 -3.628,-0.172 -4.259,-0.384c-0.158,-0.053 -0.267,-0.232 -0.267,-0.437l0,-6.611c0,-0.25 0.161,-0.453 0.362,-0.453l8.329,0c0.2,0 0.362,0.202 0.362,0.453l0,6.611l-0.001,0z"/>
    </g>
</svg>
