<?xml version="1.0" encoding="UTF-8" standalone="no"?>
<!DOCTYPE svg PUBLIC "-//W3C//DTD SVG 1.1//EN"
 "http://www.w3.org/Graphics/SVG/1.1/DTD/svg11.dtd">
<!-- Generated by graphviz version 2.40.1 (20161225.0304)
 -->
<!-- Title: kooste.metadata Pages: 1 -->
<svg width="366pt" height="225pt"
 viewBox="0.00 0.00 366.00 225.00" xmlns="http://www.w3.org/2000/svg" xmlns:xlink="http://www.w3.org/1999/xlink">
<g id="graph0" class="graph" transform="scale(1 1) rotate(0) translate(4 221)">
<title>kooste.metadata</title>
<polygon fill="#ffffff" stroke="transparent" points="-4,4 -4,-221 362,-221 362,4 -4,4"/>
<!-- kooste.metadata -->
<g id="node1" class="node">
<title>kooste.metadata</title>
<polygon fill="#efefef" stroke="transparent" points="46,-135.5 46,-170.5 312,-170.5 312,-135.5 46,-135.5"/>
<polygon fill="none" stroke="#000000" points="46,-135.5 46,-170.5 312,-170.5 312,-135.5 46,-135.5"/>
<text text-anchor="start" x="63.8478" y="-148.3" font-family="Arial Bold" font-size="18.00" fill="#000000">kooste.metadata</text>
<text text-anchor="start" x="196.8984" y="-148.3" font-family="Arial" font-size="14.00" fill="#000000"> </text>
<text text-anchor="start" x="200.789" y="-148.3" font-family="Arial" font-size="14.00" fill="#666666">[BASE TABLE]</text>
<polygon fill="none" stroke="#000000" points="46,-105.5 46,-135.5 312,-135.5 312,-105.5 46,-105.5"/>
<text text-anchor="start" x="53" y="-116.9" font-family="Arial" font-size="14.00" fill="#000000">update_id </text>
<text text-anchor="start" x="118.366" y="-116.9" font-family="Arial" font-size="14.00" fill="#666666">[bigint]</text>
<polygon fill="none" stroke="#000000" points="46,-75.5 46,-105.5 312,-105.5 312,-75.5 46,-75.5"/>
<text text-anchor="start" x="53" y="-86.9" font-family="Arial" font-size="14.00" fill="#000000">datasource </text>
<text text-anchor="start" x="126.1374" y="-86.9" font-family="Arial" font-size="14.00" fill="#666666">[text]</text>
<polygon fill="none" stroke="#000000" points="46,-45.5 46,-75.5 312,-75.5 312,-45.5 46,-45.5"/>
<text text-anchor="start" x="52.9839" y="-56.9" font-family="Arial" font-size="14.00" fill="#000000">last_modified </text>
<text text-anchor="start" x="139.3317" y="-56.9" font-family="Arial" font-size="14.00" fill="#666666">[timestamp with time zone]</text>
<polygon fill="none" stroke="#000000" stroke-width="3" points="44.5,-44.5 44.5,-172.5 313.5,-172.5 313.5,-44.5 44.5,-44.5"/>
</g>
</g>
</svg>
