<?xml version="1.0" encoding="UTF-8" standalone="no"?>
<!DOCTYPE svg PUBLIC "-//W3C//DTD SVG 1.1//EN"
 "http://www.w3.org/Graphics/SVG/1.1/DTD/svg11.dtd">
<!-- Generated by graphviz version 2.40.1 (20161225.0304)
 -->
<!-- Title: kooste.point_clusters_8 Pages: 1 -->
<svg width="456pt" height="315pt"
 viewBox="0.00 0.00 456.00 315.00" xmlns="http://www.w3.org/2000/svg" xmlns:xlink="http://www.w3.org/1999/xlink">
<g id="graph0" class="graph" transform="scale(1 1) rotate(0) translate(4 311)">
<title>kooste.point_clusters_8</title>
<polygon fill="#ffffff" stroke="transparent" points="-4,4 -4,-311 452,-311 452,4 -4,4"/>
<!-- kooste.point_clusters_8 -->
<g id="node1" class="node">
<title>kooste.point_clusters_8</title>
<polygon fill="#efefef" stroke="transparent" points="46,-225.5 46,-260.5 402,-260.5 402,-225.5 46,-225.5"/>
<polygon fill="none" stroke="#000000" points="46,-225.5 46,-260.5 402,-260.5 402,-225.5 46,-225.5"/>
<text text-anchor="start" x="52.8562" y="-238.3" font-family="Arial Bold" font-size="18.00" fill="#000000">kooste.point_clusters_8</text>
<text text-anchor="start" x="241.9138" y="-238.3" font-family="Arial" font-size="14.00" fill="#000000"> </text>
<text text-anchor="start" x="245.8044" y="-238.3" font-family="Arial" font-size="14.00" fill="#666666">[MATERIALIZED VIEW]</text>
<polygon fill="none" stroke="#000000" points="46,-195.5 46,-225.5 402,-225.5 402,-195.5 46,-195.5"/>
<text text-anchor="start" x="53" y="-206.9" font-family="Arial" font-size="14.00" fill="#000000">cluster_id </text>
<text text-anchor="start" x="116.7854" y="-206.9" font-family="Arial" font-size="14.00" fill="#666666">[integer]</text>
<polygon fill="none" stroke="#000000" points="46,-165.5 46,-195.5 402,-195.5 402,-165.5 46,-165.5"/>
<text text-anchor="start" x="53" y="-176.9" font-family="Arial" font-size="14.00" fill="#000000">size </text>
<text text-anchor="start" x="81.7798" y="-176.9" font-family="Arial" font-size="14.00" fill="#666666">[bigint]</text>
<polygon fill="none" stroke="#000000" points="46,-135.5 46,-165.5 402,-165.5 402,-135.5 46,-135.5"/>
<text text-anchor="start" x="53" y="-146.9" font-family="Arial" font-size="14.00" fill="#000000">cluster_geom </text>
<text text-anchor="start" x="140.9046" y="-146.9" font-family="Arial" font-size="14.00" fill="#666666">[geometry(Point,4326)]</text>
<polygon fill="none" stroke="#000000" points="46,-105.5 46,-135.5 402,-135.5 402,-105.5 46,-105.5"/>
<text text-anchor="start" x="53" y="-116.9" font-family="Arial" font-size="14.00" fill="#000000">cityName </text>
<text text-anchor="start" x="115.2202" y="-116.9" font-family="Arial" font-size="14.00" fill="#666666">[text]</text>
<polygon fill="none" stroke="#000000" points="46,-75.5 46,-105.5 402,-105.5 402,-75.5 46,-75.5"/>
<text text-anchor="start" x="53" y="-86.9" font-family="Arial" font-size="14.00" fill="#000000">tarmo_category </text>
<text text-anchor="start" x="154.1318" y="-86.9" font-family="Arial" font-size="14.00" fill="#666666">[text]</text>
<polygon fill="none" stroke="#000000" points="46,-45.5 46,-75.5 402,-75.5 402,-45.5 46,-45.5"/>
<text text-anchor="start" x="53" y="-56.9" font-family="Arial" font-size="14.00" fill="#000000">props </text>
<text text-anchor="start" x="91.899" y="-56.9" font-family="Arial" font-size="14.00" fill="#666666">[jsonb]</text>
<polygon fill="none" stroke="#000000" stroke-width="3" points="44.5,-44.5 44.5,-262.5 403.5,-262.5 403.5,-44.5 44.5,-44.5"/>
</g>
</g>
</svg>
