<?xml version="1.0" encoding="UTF-8" standalone="no"?>
<!DOCTYPE svg PUBLIC "-//W3C//DTD SVG 1.1//EN"
 "http://www.w3.org/Graphics/SVG/1.1/DTD/svg11.dtd">
<!-- Generated by graphviz version 2.40.1 (20161225.0304)
 -->
<!-- Title: kooste.museovirastoarcrest_metadata Pages: 1 -->
<svg width="516pt" height="255pt"
 viewBox="0.00 0.00 516.00 255.00" xmlns="http://www.w3.org/2000/svg" xmlns:xlink="http://www.w3.org/1999/xlink">
<g id="graph0" class="graph" transform="scale(1 1) rotate(0) translate(4 251)">
<title>kooste.museovirastoarcrest_metadata</title>
<polygon fill="#ffffff" stroke="transparent" points="-4,4 -4,-251 512,-251 512,4 -4,4"/>
<!-- kooste.museovirastoarcrest_metadata -->
<g id="node1" class="node">
<title>kooste.museovirastoarcrest_metadata</title>
<polygon fill="#efefef" stroke="transparent" points="46,-165.5 46,-200.5 462,-200.5 462,-165.5 46,-165.5"/>
<polygon fill="none" stroke="#000000" points="46,-165.5 46,-200.5 462,-200.5 462,-165.5 46,-165.5"/>
<text text-anchor="start" x="52.8393" y="-178.3" font-family="Arial Bold" font-size="18.00" fill="#000000">kooste.museovirastoarcrest_metadata</text>
<text text-anchor="start" x="357.9069" y="-178.3" font-family="Arial" font-size="14.00" fill="#000000"> </text>
<text text-anchor="start" x="361.7975" y="-178.3" font-family="Arial" font-size="14.00" fill="#666666">[BASE TABLE]</text>
<polygon fill="none" stroke="#000000" points="46,-135.5 46,-165.5 462,-165.5 462,-135.5 46,-135.5"/>
<text text-anchor="start" x="53" y="-146.9" font-family="Arial" font-size="14.00" fill="#000000">update_id </text>
<text text-anchor="start" x="118.366" y="-146.9" font-family="Arial" font-size="14.00" fill="#666666">[bigint]</text>
<polygon fill="none" stroke="#000000" points="46,-105.5 46,-135.5 462,-135.5 462,-105.5 46,-105.5"/>
<text text-anchor="start" x="53" y="-116.9" font-family="Arial" font-size="14.00" fill="#000000">last_modified </text>
<text text-anchor="start" x="139.3478" y="-116.9" font-family="Arial" font-size="14.00" fill="#666666">[timestamp with time zone]</text>
<polygon fill="none" stroke="#000000" points="46,-75.5 46,-105.5 462,-105.5 462,-75.5 46,-75.5"/>
<text text-anchor="start" x="53" y="-86.9" font-family="Arial" font-size="14.00" fill="#000000">layers_to_include </text>
<text text-anchor="start" x="165.805" y="-86.9" font-family="Arial" font-size="14.00" fill="#666666">[jsonb]</text>
<polygon fill="none" stroke="#000000" points="46,-45.5 46,-75.5 462,-75.5 462,-45.5 46,-45.5"/>
<text text-anchor="start" x="53" y="-56.9" font-family="Arial" font-size="14.00" fill="#000000">url </text>
<text text-anchor="start" x="72.4404" y="-56.9" font-family="Arial" font-size="14.00" fill="#666666">[text]</text>
<polygon fill="none" stroke="#000000" stroke-width="3" points="44.5,-44.5 44.5,-202.5 463.5,-202.5 463.5,-44.5 44.5,-44.5"/>
</g>
</g>
</svg>
