<?xml version="1.0" encoding="UTF-8" standalone="no"?>
<!DOCTYPE svg PUBLIC "-//W3C//DTD SVG 1.1//EN"
 "http://www.w3.org/Graphics/SVG/1.1/DTD/svg11.dtd">
<!-- Generated by graphviz version 2.40.1 (20161225.0304)
 -->
<!-- Title: kooste.syke_natura2000 Pages: 1 -->
<svg width="407pt" height="435pt"
 viewBox="0.00 0.00 407.00 435.00" xmlns="http://www.w3.org/2000/svg" xmlns:xlink="http://www.w3.org/1999/xlink">
<g id="graph0" class="graph" transform="scale(1 1) rotate(0) translate(4 431)">
<title>kooste.syke_natura2000</title>
<polygon fill="#ffffff" stroke="transparent" points="-4,4 -4,-431 403,-431 403,4 -4,4"/>
<!-- kooste.syke_natura2000 -->
<g id="node1" class="node">
<title>kooste.syke_natura2000</title>
<polygon fill="#efefef" stroke="transparent" points="46.5,-345.5 46.5,-380.5 353.5,-380.5 353.5,-345.5 46.5,-345.5"/>
<polygon fill="none" stroke="#000000" points="46.5,-345.5 46.5,-380.5 353.5,-380.5 353.5,-345.5 46.5,-345.5"/>
<text text-anchor="start" x="53.3334" y="-358.3" font-family="Arial Bold" font-size="18.00" fill="#000000">kooste.syke_natura2000</text>
<text text-anchor="start" x="249.4128" y="-358.3" font-family="Arial" font-size="14.00" fill="#000000"> </text>
<text text-anchor="start" x="253.3034" y="-358.3" font-family="Arial" font-size="14.00" fill="#666666">[BASE TABLE]</text>
<polygon fill="none" stroke="#000000" points="46.5,-315.5 46.5,-345.5 353.5,-345.5 353.5,-315.5 46.5,-315.5"/>
<text text-anchor="start" x="53.5" y="-326.9" font-family="Arial" font-size="14.00" fill="#000000">naturaTunnus </text>
<text text-anchor="start" x="143.7552" y="-326.9" font-family="Arial" font-size="14.00" fill="#666666">[text]</text>
<polygon fill="none" stroke="#000000" points="46.5,-285.5 46.5,-315.5 353.5,-315.5 353.5,-285.5 46.5,-285.5"/>
<text text-anchor="start" x="53.5" y="-296.9" font-family="Arial" font-size="14.00" fill="#000000">geom </text>
<text text-anchor="start" x="92.399" y="-296.9" font-family="Arial" font-size="14.00" fill="#666666">[geometry(MultiPolygon,4326)]</text>
<polygon fill="none" stroke="#000000" points="46.5,-255.5 46.5,-285.5 353.5,-285.5 353.5,-255.5 46.5,-255.5"/>
<text text-anchor="start" x="53.5" y="-266.9" font-family="Arial" font-size="14.00" fill="#000000">name </text>
<text text-anchor="start" x="92.399" y="-266.9" font-family="Arial" font-size="14.00" fill="#666666">[text]</text>
<polygon fill="none" stroke="#000000" points="46.5,-225.5 46.5,-255.5 353.5,-255.5 353.5,-225.5 46.5,-225.5"/>
<text text-anchor="start" x="53.5" y="-236.9" font-family="Arial" font-size="14.00" fill="#000000">tarmo_category </text>
<text text-anchor="start" x="154.6318" y="-236.9" font-family="Arial" font-size="14.00" fill="#666666">[text]</text>
<polygon fill="none" stroke="#000000" points="46.5,-195.5 46.5,-225.5 353.5,-225.5 353.5,-195.5 46.5,-195.5"/>
<text text-anchor="start" x="53.5" y="-206.9" font-family="Arial" font-size="14.00" fill="#000000">type_name </text>
<text text-anchor="start" x="126.6374" y="-206.9" font-family="Arial" font-size="14.00" fill="#666666">[text]</text>
<polygon fill="none" stroke="#000000" points="46.5,-165.5 46.5,-195.5 353.5,-195.5 353.5,-165.5 46.5,-165.5"/>
<text text-anchor="start" x="53.5" y="-176.9" font-family="Arial" font-size="14.00" fill="#000000">paatosPvm </text>
<text text-anchor="start" x="127.4088" y="-176.9" font-family="Arial" font-size="14.00" fill="#666666">[date]</text>
<polygon fill="none" stroke="#000000" points="46.5,-135.5 46.5,-165.5 353.5,-165.5 353.5,-135.5 46.5,-135.5"/>
<text text-anchor="start" x="53.5" y="-146.9" font-family="Arial" font-size="14.00" fill="#000000">luontiPvm </text>
<text text-anchor="start" x="118.8394" y="-146.9" font-family="Arial" font-size="14.00" fill="#666666">[date]</text>
<polygon fill="none" stroke="#000000" points="46.5,-105.5 46.5,-135.5 353.5,-135.5 353.5,-105.5 46.5,-105.5"/>
<text text-anchor="start" x="53.5" y="-116.9" font-family="Arial" font-size="14.00" fill="#000000">muutosPvm </text>
<text text-anchor="start" x="131.2868" y="-116.9" font-family="Arial" font-size="14.00" fill="#666666">[date]</text>
<polygon fill="none" stroke="#000000" points="46.5,-75.5 46.5,-105.5 353.5,-105.5 353.5,-75.5 46.5,-75.5"/>
<text text-anchor="start" x="53.5" y="-86.9" font-family="Arial" font-size="14.00" fill="#000000">paattymisPvm </text>
<text text-anchor="start" x="145.284" y="-86.9" font-family="Arial" font-size="14.00" fill="#666666">[date]</text>
<polygon fill="none" stroke="#000000" points="46.5,-45.5 46.5,-75.5 353.5,-75.5 353.5,-45.5 46.5,-45.5"/>
<text text-anchor="start" x="53.5" y="-56.9" font-family="Arial" font-size="14.00" fill="#000000">deleted </text>
<text text-anchor="start" x="103.3008" y="-56.9" font-family="Arial" font-size="14.00" fill="#666666">[boolean]</text>
<polygon fill="none" stroke="#000000" stroke-width="3" points="44.5,-44.5 44.5,-382.5 354.5,-382.5 354.5,-44.5 44.5,-44.5"/>
</g>
</g>
</svg>
