<?xml version="1.0" encoding="UTF-8" standalone="no"?>
<!DOCTYPE svg PUBLIC "-//W3C//DTD SVG 1.1//EN"
 "http://www.w3.org/Graphics/SVG/1.1/DTD/svg11.dtd">
<!-- Generated by graphviz version 2.40.1 (20161225.0304)
 -->
<!-- Title: kooste.osm_pisteet Pages: 1 -->
<svg width="366pt" height="375pt"
 viewBox="0.00 0.00 366.00 375.00" xmlns="http://www.w3.org/2000/svg" xmlns:xlink="http://www.w3.org/1999/xlink">
<g id="graph0" class="graph" transform="scale(1 1) rotate(0) translate(4 371)">
<title>kooste.osm_pisteet</title>
<polygon fill="#ffffff" stroke="transparent" points="-4,4 -4,-371 362,-371 362,4 -4,4"/>
<!-- kooste.osm_pisteet -->
<g id="node1" class="node">
<title>kooste.osm_pisteet</title>
<polygon fill="#efefef" stroke="transparent" points="46,-285.5 46,-320.5 312,-320.5 312,-285.5 46,-285.5"/>
<polygon fill="none" stroke="#000000" points="46,-285.5 46,-320.5 312,-320.5 312,-285.5 46,-285.5"/>
<text text-anchor="start" x="52.8507" y="-298.3" font-family="Arial Bold" font-size="18.00" fill="#000000">kooste.osm_pisteet</text>
<text text-anchor="start" x="207.8955" y="-298.3" font-family="Arial" font-size="14.00" fill="#000000"> </text>
<text text-anchor="start" x="211.7861" y="-298.3" font-family="Arial" font-size="14.00" fill="#666666">[BASE TABLE]</text>
<polygon fill="none" stroke="#000000" points="46,-255.5 46,-285.5 312,-285.5 312,-255.5 46,-255.5"/>
<text text-anchor="start" x="53" y="-266.9" font-family="Arial" font-size="14.00" fill="#000000">id </text>
<text text-anchor="start" x="67.7798" y="-266.9" font-family="Arial" font-size="14.00" fill="#666666">[text]</text>
<polygon fill="none" stroke="#000000" points="46,-225.5 46,-255.5 312,-255.5 312,-225.5 46,-225.5"/>
<text text-anchor="start" x="53" y="-236.9" font-family="Arial" font-size="14.00" fill="#000000">osm_id </text>
<text text-anchor="start" x="102.0056" y="-236.9" font-family="Arial" font-size="14.00" fill="#666666">[bigint]</text>
<polygon fill="none" stroke="#000000" points="46,-195.5 46,-225.5 312,-225.5 312,-195.5 46,-195.5"/>
<text text-anchor="start" x="53" y="-206.9" font-family="Arial" font-size="14.00" fill="#000000">osm_type </text>
<text text-anchor="start" x="117.5722" y="-206.9" font-family="Arial" font-size="14.00" fill="#666666">[text]</text>
<polygon fill="none" stroke="#000000" points="46,-165.5 46,-195.5 312,-195.5 312,-165.5 46,-165.5"/>
<text text-anchor="start" x="53" y="-176.9" font-family="Arial" font-size="14.00" fill="#000000">geom </text>
<text text-anchor="start" x="91.899" y="-176.9" font-family="Arial" font-size="14.00" fill="#666666">[geometry(Point,4326)]</text>
<polygon fill="none" stroke="#000000" points="46,-135.5 46,-165.5 312,-165.5 312,-135.5 46,-135.5"/>
<text text-anchor="start" x="53" y="-146.9" font-family="Arial" font-size="14.00" fill="#000000">tarmo_category </text>
<text text-anchor="start" x="154.1318" y="-146.9" font-family="Arial" font-size="14.00" fill="#666666">[text]</text>
<polygon fill="none" stroke="#000000" points="46,-105.5 46,-135.5 312,-135.5 312,-105.5 46,-105.5"/>
<text text-anchor="start" x="53" y="-116.9" font-family="Arial" font-size="14.00" fill="#000000">type_name </text>
<text text-anchor="start" x="126.1374" y="-116.9" font-family="Arial" font-size="14.00" fill="#666666">[text]</text>
<polygon fill="none" stroke="#000000" points="46,-75.5 46,-105.5 312,-105.5 312,-75.5 46,-75.5"/>
<text text-anchor="start" x="53" y="-86.9" font-family="Arial" font-size="14.00" fill="#000000">tags </text>
<text text-anchor="start" x="83.3464" y="-86.9" font-family="Arial" font-size="14.00" fill="#666666">[jsonb]</text>
<polygon fill="none" stroke="#000000" points="46,-45.5 46,-75.5 312,-75.5 312,-45.5 46,-45.5"/>
<text text-anchor="start" x="53" y="-56.9" font-family="Arial" font-size="14.00" fill="#000000">deleted </text>
<text text-anchor="start" x="102.8008" y="-56.9" font-family="Arial" font-size="14.00" fill="#666666">[boolean]</text>
<polygon fill="none" stroke="#000000" stroke-width="3" points="44.5,-44.5 44.5,-322.5 313.5,-322.5 313.5,-44.5 44.5,-44.5"/>
</g>
</g>
</svg>
