<?xml version="1.0" encoding="UTF-8" standalone="no"?>
<!DOCTYPE svg PUBLIC "-//W3C//DTD SVG 1.1//EN"
 "http://www.w3.org/Graphics/SVG/1.1/DTD/svg11.dtd">
<!-- Generated by graphviz version 2.40.1 (20161225.0304)
 -->
<!-- Title: kooste.tamperewfs_luonnonmuistomerkit Pages: 1 -->
<svg width="538pt" height="435pt"
 viewBox="0.00 0.00 538.00 435.00" xmlns="http://www.w3.org/2000/svg" xmlns:xlink="http://www.w3.org/1999/xlink">
<g id="graph0" class="graph" transform="scale(1 1) rotate(0) translate(4 431)">
<title>kooste.tamperewfs_luonnonmuistomerkit</title>
<polygon fill="#ffffff" stroke="transparent" points="-4,4 -4,-431 534,-431 534,4 -4,4"/>
<!-- kooste.tamperewfs_luonnonmuistomerkit -->
<g id="node1" class="node">
<title>kooste.tamperewfs_luonnonmuistomerkit</title>
<polygon fill="#efefef" stroke="transparent" points="46,-345.5 46,-380.5 484,-380.5 484,-345.5 46,-345.5"/>
<polygon fill="none" stroke="#000000" points="46,-345.5 46,-380.5 484,-380.5 484,-345.5 46,-345.5"/>
<text text-anchor="start" x="52.8449" y="-358.3" font-family="Arial Bold" font-size="18.00" fill="#000000">kooste.tamperewfs_luonnonmuistomerkit</text>
<text text-anchor="start" x="379.9013" y="-358.3" font-family="Arial" font-size="14.00" fill="#000000"> </text>
<text text-anchor="start" x="383.7919" y="-358.3" font-family="Arial" font-size="14.00" fill="#666666">[BASE TABLE]</text>
<polygon fill="none" stroke="#000000" points="46,-315.5 46,-345.5 484,-345.5 484,-315.5 46,-315.5"/>
<text text-anchor="start" x="53" y="-326.9" font-family="Arial" font-size="14.00" fill="#000000">sw_member </text>
<text text-anchor="start" x="133.1094" y="-326.9" font-family="Arial" font-size="14.00" fill="#666666">[bigint]</text>
<polygon fill="none" stroke="#000000" points="46,-285.5 46,-315.5 484,-315.5 484,-285.5 46,-285.5"/>
<text text-anchor="start" x="53" y="-296.9" font-family="Arial" font-size="14.00" fill="#000000">geom </text>
<text text-anchor="start" x="91.899" y="-296.9" font-family="Arial" font-size="14.00" fill="#666666">[geometry(MultiPoint,4326)]</text>
<polygon fill="none" stroke="#000000" points="46,-255.5 46,-285.5 484,-285.5 484,-255.5 46,-255.5"/>
<text text-anchor="start" x="53" y="-266.9" font-family="Arial" font-size="14.00" fill="#000000">visibility </text>
<text text-anchor="start" x="105.0968" y="-266.9" font-family="Arial" font-size="14.00" fill="#666666">[boolean]</text>
<polygon fill="none" stroke="#000000" points="46,-225.5 46,-255.5 484,-255.5 484,-225.5 46,-225.5"/>
<text text-anchor="start" x="53" y="-236.9" font-family="Arial" font-size="14.00" fill="#000000">name </text>
<text text-anchor="start" x="91.899" y="-236.9" font-family="Arial" font-size="14.00" fill="#666666">[text]</text>
<polygon fill="none" stroke="#000000" points="46,-195.5 46,-225.5 484,-225.5 484,-195.5 46,-195.5"/>
<text text-anchor="start" x="53" y="-206.9" font-family="Arial" font-size="14.00" fill="#000000">tarmo_category </text>
<text text-anchor="start" x="154.1318" y="-206.9" font-family="Arial" font-size="14.00" fill="#666666">[text]</text>
<polygon fill="none" stroke="#000000" points="46,-165.5 46,-195.5 484,-195.5 484,-165.5 46,-165.5"/>
<text text-anchor="start" x="53" y="-176.9" font-family="Arial" font-size="14.00" fill="#000000">type_name </text>
<text text-anchor="start" x="126.1374" y="-176.9" font-family="Arial" font-size="14.00" fill="#666666">[text]</text>
<polygon fill="none" stroke="#000000" points="46,-135.5 46,-165.5 484,-165.5 484,-135.5 46,-135.5"/>
<text text-anchor="start" x="53" y="-146.9" font-family="Arial" font-size="14.00" fill="#000000">infoFi </text>
<text text-anchor="start" x="91.1122" y="-146.9" font-family="Arial" font-size="14.00" fill="#666666">[text]</text>
<polygon fill="none" stroke="#000000" points="46,-105.5 46,-135.5 484,-135.5 484,-105.5 46,-105.5"/>
<text text-anchor="start" x="53" y="-116.9" font-family="Arial" font-size="14.00" fill="#000000">paatosnumero </text>
<text text-anchor="start" x="146.3632" y="-116.9" font-family="Arial" font-size="14.00" fill="#666666">[text]</text>
<polygon fill="none" stroke="#000000" points="46,-75.5 46,-105.5 484,-105.5 484,-75.5 46,-75.5"/>
<text text-anchor="start" x="53" y="-86.9" font-family="Arial" font-size="14.00" fill="#000000">paatospaiva </text>
<text text-anchor="start" x="132.366" y="-86.9" font-family="Arial" font-size="14.00" fill="#666666">[date]</text>
<polygon fill="none" stroke="#000000" points="46,-45.5 46,-75.5 484,-75.5 484,-45.5 46,-45.5"/>
<text text-anchor="start" x="53" y="-56.9" font-family="Arial" font-size="14.00" fill="#000000">deleted </text>
<text text-anchor="start" x="102.8008" y="-56.9" font-family="Arial" font-size="14.00" fill="#666666">[boolean]</text>
<polygon fill="none" stroke="#000000" stroke-width="3" points="44.5,-44.5 44.5,-382.5 485.5,-382.5 485.5,-44.5 44.5,-44.5"/>
</g>
</g>
</svg>
